# xmcd
#
# Track frame offsets:
#	150
#	17222
#	27948
#	47410
#	68292
#	82282
#	100973
#	115431
#	137214
#	154745
#	166619
#	185853
#	199855
#	217661
#	230641
#	247524
#
# Disc length: 3641 seconds
#
# Revision: 2
# Processed by: cddbd v1.5.2PL0 Copyright (c) Steve Scherf et al.
# Submitted via: audiograbber 1.83.01
#
DISCID=d00e3710
DTITLE=MH 1142 Monster Hits - 60's and 70's Male R&B (MH)
DYEAR=2008
DGENRE=Karaoke
TTITLE0=Lou Rawls - You'll Never Find Another Love Like Mine (MH)
TTITLE1=Bill Withers - Ain't No Sunshine (MH)
TTITLE2=Marvin Gaye - Let's Get It On (MH)
TTITLE3=Commodores - Easy (MH)
TTITLE4=Aaron Neville - Tell It Like It Is (MH)
TTITLE5=Al Green - Let's Stay Together (MH)
TTITLE6=Stevie Wonder - If You Really Love Me (MH)
TTITLE7=Barry White - You're My First, My Last, My Everything (MH)
TTITLE8=Harold Melvin And The Blue Notes - If You Don't Know Me By Now (MH)
TTITLE9=Brook Benton - It's Just A Matter Of Time (MH)
TTITLE10=Brook Benton - Rainy Night In Georgia (MH)
TTITLE11=Ray Charles - What'd I Say (MH)
TTITLE12=Chi Lites - Oh Girl (MH)
TTITLE13=Drifters - Up On The Roof (MH)
TTITLE14=Manhattans - Kiss And Say Goodbye (MH)
TTITLE15=Stevie Wonder - Uptight (Everything's Alright) (MH)
EXTD=
EXTT0=
EXTT1=
EXTT2=
EXTT3=
EXTT4=
EXTT5=
EXTT6=
EXTT7=
EXTT8=
EXTT9=
EXTT10=
EXTT11=
EXTT12=
EXTT13=
EXTT14=
EXTT15=
PLAYORDER=
